Patient4_TMGait_0pt3_03_right_30_EMG.mot
version=1
nRows=13
nColumns=33
inDegrees=no
endheader
time	1LAddLong	2LGlutMax	3LGlutMed	4LIliopsoas	5LSemiMemb	6LBicFemLong	7LRecFem	8LVastMed	9LVastLat	10LGasMed	11LTibAnt	12lTibPost	13LPeroneusLong	14LSol	15LExtDigLong	16LFlexDigLong	17RAddLong	18RGlutMax	19RGlutMed	20RIliopsoas	21RSemiMemb	22RBicFemLong	23RRecFem	24RVastMed	25RVastLat	26RGasMed	27RTibAnt	28RTibPost	29RPeroneusLong	30RSol	31RExtDigLong	32RFlexDigLong
56.647	0.007172	-0.11292	0.12634	-0.013123	-0.002747	0.001373	0.038147	0.011292	-0.002594	-0.012512	-0.010376	0.005493	0.014954	0.041199	0.01297	-0.4921	0.062866	0.026398	0.28	-0.12161	0.026855	0.16403	0.033417	-0.002136	-0.0177	-0.08255	-0.012817	-0.02182	0.20401	0.16922	-0.002747	-0.009308
56.648	0	-0.098114	0.098419	0.019073	-0.008087	0.006256	0.020294	0.015564	0.001373	-0.009918	-0.006561	-0.00061	-0.012817	0.0383	0.002747	1.0147	0.092163	0.059052	0.31082	-0.13763	-0.009613	0.040131	0.057526	0.031738	-0.015564	-0.031281	0.027618	-0.019531	0.35217	-0.024109	0.000153	-0.010223
56.649	-0.005341	-0.094299	0.075989	0.003815	0.002289	0.000763	0.010834	0.016174	0.003662	-0.046082	-0.006561	0.006256	-0.007629	0.020447	-0.016785	0.022278	0.053253	0.029602	0.088654	-0.10162	0.076141	-0.10468	0.066376	0.026398	-0.002899	-0.009308	0.030975	-0.024719	-0.31906	-0.15808	-0.003357	0.00061
56.65	-0.00946	-0.10376	0.06134	0.003052	0.002136	-0.029755	0.00946	0.013275	-0.001373	-0.080872	0.000458	-0.00351	-0.00824	0.015869	-0.004578	-0.15366	-0.020294	0.021667	-0.089417	0.018311	0.28503	-0.25192	-0.021057	0.06073	0.018311	0.056915	0.017853	-0.028229	-1.3356	-0.099792	-0.005493	-0.000763
56.651	-0.003052	-0.076141	0.081024	-0.009766	0.004425	-0.02182	-0.016937	0.010834	-0.003967	-0.082703	-0.006714	0.006104	-0.01297	0.046234	0.000153	0.21774	-0.0383	0.07431	-0.054016	0.06424	-0.041504	-0.40955	-0.043182	-0.021515	0.029755	0.005188	0.088959	-0.033112	-0.18509	0.063782	-0.000458	-0.011902
56.652	-0.009918	-0.072784	0.1004	-0.001068	0.005035	-0.010529	0.010834	0.012054	0.007935	-0.030518	-0.002594	0.006714	-0.039978	0.040131	-0.00824	0.33966	-0.011902	0.066528	-0.17914	0.05127	-0.25223	-0.39597	0.039673	-0.034637	0.012207	0.006409	0.050964	-0.04776	2.1779	0.089417	0.000305	-0.008698
56.653	-0.011749	-0.072784	0.075989	0.007629	0.008087	-0.027161	0.012665	0.009308	0.00473	0.054626	0.014038	-0.004425	-0.084686	0.07782	0.003357	-0.12009	-0.017395	-0.001984	-0.19134	0.029297	0.26611	-0.27771	0.040131	0.024414	-0.012512	0.001526	-0.061493	-0.057678	0.88531	0.015106	0.006409	-0.005341
56.654	-0.011749	-0.062714	0.079041	-0.003967	0.003357	-0.016022	-0.008545	0.014191	0.005188	0.1535	0.000916	-0.001678	-0.094757	0.177	-0.001373	-0.14526	-0.050507	-0.0354	-0.00824	0.030365	-0.14038	-0.077362	0.013123	0.13534	0.014038	0.003052	-0.12405	0.023041	0.31723	0.009766	-0.003815	-0.005341
56.655	-0.020599	-0.044708	0.087891	0.013428	-0.004425	-0.012665	0.001984	0.007477	0.010071	0.18295	0.003052	-0.00351	-0.074768	0.062866	-0.002441	-0.018005	-0.062714	-0.11108	0.28732	0.036469	-0.20645	0.11749	0	0.15091	0.01297	0.007629	-0.22629	0.053711	0.67673	0.002441	-0.002747	-0.006256
56.656	-0.018311	-0.047607	0.091705	0.000458	0.00885	-0.016174	0.000153	0.004425	0.007782	0.12726	-0.001984	-0.002594	0.042725	0.018005	-0.001068	-0.42007	-0.023956	-0.1062	0.34759	0.013123	-0.13382	0.17181	0.054169	0.02243	-0.006409	0.008392	-0.15442	0.001221	0.20935	-0.049286	-0.005798	-0.010071
56.657	-0.012054	-0.00412	0.072784	0.012512	0.006714	-0.014038	0.008087	0.008545	0.009003	-0.035706	0.001526	-0.00412	0.027161	0.008698	-0.009155	0.29587	-0.019989	-0.11475	0.29938	-0.020905	-0.37735	0.28198	0.043182	0.029449	-0.002136	0.004578	-0.056915	-0.015106	-0.19379	-0.049286	-0.001678	-0.008545
56.658	-0.00946	0.001678	0.060883	0.011902	0.00824	-0.015717	-0.014191	0.010376	0.016785	0.001984	0.003052	0.005951	-0.00351	0.022888	-0.012665	0.43335	-0.034332	-0.15625	0.2179	-0.058289	-0.16281	0.3801	0.056763	-0.013885	0.003357	-0.00061	-0.020142	-0.01297	-0.3949	-0.097046	-0.005035	-0.011749
56.659	-0.00946	0.011902	0.06546	0.008392	0.002289	-0.013428	-0.02182	0.006561	0.010834	0.057678	0.000458	-0.059357	-0.074463	-0.08667	-0.003967	-0.059967	0.045166	-0.25223	0.14206	-0.024719	0.37552	0.26184	0.066071	-0.06134	0.014038	-0.009155	-0.095825	-0.003815	-0.46219	-0.056915	-0.003204	-0.010834
